inDegrees=yes
name=ik_S47_A09_T02
DataType=double
version=3
OpenSimVersion=4.3-2021-08-27-4bc7ad9
endheader
time	pelvis_tilt	pelvis_list	pelvis_rotation	pelvis_tx	pelvis_ty	pelvis_tz	hip_flexion_r	hip_adduction_r	hip_rotation_r	knee_angle_r	knee_angle_r_beta	ankle_angle_r	subtalar_angle_r	mtp_angle_r	hip_flexion_l	hip_adduction_l	hip_rotation_l	knee_angle_l	knee_angle_l_beta	ankle_angle_l	subtalar_angle_l	mtp_angle_l	lumbar_extension	lumbar_bending	lumbar_rotation	arm_flex_r	arm_add_r	arm_rot_r	elbow_flex_r	pro_sup_r	wrist_flex_r	wrist_dev_r	arm_flex_l	arm_add_l	arm_rot_l	elbow_flex_l	pro_sup_l	wrist_flex_l	wrist_dev_l
16.39999999999974	-13.04431140094983	-6.71325418458783	30.10605071229132	0	0.9399999999999999	0	44.54925798131186	-9.989328944328769	-10.01091783327506	55.26760539248605	0.9646016837918545	0	0	0	44.54925798131186	-9.989328944328769	-10.01091783327506	55.26760539248605	0.9646016837918545	0	0	0	-13.68028565475657	-0.9200230887258828	1.426174983570632	69.31618223888799	-10.52944929445624	24.48277388098369	59.51114024335661	90.58214725579245	0	0	73.80406516517341	-5.072543255475414	16.10637584812673	57.44309296158963	85.04105011496591	0	0
16.41999999999974	-13.06167837896307	-6.677380622433808	30.0352521165843	0	0.9399999999999999	0	44.54952992501335	-9.989351339936729	-10.01090311492747	55.26749694652626	0.9645997910527957	0	0	0	44.54952992501335	-9.989351339936729	-10.01090311492747	55.26749694652626	0.9645997910527957	0	0	0	-13.67999389769739	-0.8828089218377305	1.439090030593505	69.13964049714134	-10.53643509160319	25.14960783717204	59.65410410054955	90.09633047445922	0	0	74.75377079443936	-5.069024399509323	16.73340304593166	58.01435759709237	86.27036394144011	0	0
16.43999999999974	-13.07901602157201	-6.660682697472518	29.89432956650088	0	0.9399999999999999	0	44.54974990863375	-9.989369428319046	-10.0108912183223	55.26740919183013	0.9645982594444141	0	0	0	44.54974990863375	-9.989369428319046	-10.0108912183223	55.26740919183013	0.9645982594444141	0	0	0	-13.68256882780012	-0.879149020468648	1.509176500425295	69.02679223300058	-10.4491225840312	25.61110148544935	59.62536460093929	89.63053399512775	0	0	75.59342489541341	-5.108535654411863	17.77139764901513	58.73315153223023	87.64191624662529	0	0
16.45999999999974	-13.06248692010639	-6.642241489303437	29.99938395628575	0	0.9399999999999999	0	44.5499968600182	-9.989389513004983	-10.01087795719816	55.26730975824724	0.9645965240010056	0	0	0	44.5499968600182	-9.989389513004983	-10.01087795719816	55.26730975824724	0.9645965240010056	0	0	0	-13.67623254730206	-0.8325365974733171	1.383874683233102	68.94393304565445	-10.36528069987697	25.78765569381622	59.55924748064041	89.26621311112943	0	0	75.58623755593538	-5.19674538997428	17.79446022599508	59.7477522682935	90.36909600451222	0	0
16.47999999999974	-13.07312962666428	-6.60236775270359	29.81896351332842	0	0.9399999999999999	0	44.55023165260458	-9.98940883376873	-10.01086524732809	55.26721638227929	0.9645948942829227	0	0	0	44.55023165260458	-9.98940883376873	-10.01086524732809	55.26721638227929	0.9645948942829227	0	0	0	-13.65758330015762	-0.8201318358966044	1.483843719850351	68.941001004889	-10.23578575329604	25.81345573328787	59.40909815896025	89.01231035329313	0	0	76.23990973223286	-5.195260591079373	19.0544184713473	60.29752891928485	92.69648196294406	0	0
16.49999999999974	-13.08630649458092	-6.568846870535474	29.80834622164332	0	0.9399999999999999	0	44.55057794419717	-9.989437166845864	-10.0108465681635	55.26707808430758	0.9645924805279675	0	0	0	44.55057794419717	-9.989437166845864	-10.0108465681635	55.26707808430758	0.9645924805279675	0	0	0	-13.66450948521285	-0.7603083945368778	1.415210019175272	68.96992787350128	-10.03754992921318	25.79343337786139	59.20582146480744	88.81435261470307	0	0	76.26265985989681	-5.259947989788136	19.00398230880304	60.89766936990495	96.01647079051095	0	0
16.51999999999974	-13.11046985647113	-6.526646251180193	29.53054119351319	0	0.9399999999999999	0	44.55397086459735	-9.989623456611231	-10.01070377391551	55.26529093401674	0.9645612888711643	0	0	0	44.55397086459735	-9.989623456611231	-10.01070377391551	55.26529093401674	0.9645612888711643	0	0	0	-13.6580737334555	-0.7455528549850353	1.566631884522994	68.99082344707371	-9.978272216367865	25.96552037907582	59.21151445981283	88.57224826589896	0	0	77.25315026406524	-5.142959334288582	21.81492361434824	61.10816500156557	96.61742939547547	0	0
16.53999999999974	-13.12717687975505	-6.507494504039151	29.40567848847217	0	0.9399999999999999	0	44.55412541012539	-9.989635987929537	-10.01069547616395	55.26522930428987	0.9645602132295135	0	0	0	44.55412541012539	-9.989635987929537	-10.01069547616395	55.26522930428987	0.9645602132295135	0	0	0	-13.65575975512709	-0.7448087872142416	1.65553529878282	68.96703729502141	-9.82291156261379	25.96720173259292	59.0826348740347	88.54994964775288	0	0	77.69507481688559	-5.035400059132924	23.05600526150762	61.20248961875918	97.32332727210952	0	0
16.55999999999974	-13.21893233639612	-6.443697203259482	29.27884528877631	0	0.9399999999999999	0	44.55425244513614	-9.989646203390926	-10.01068869247442	55.26517826298623	0.9645593223907104	0	0	0	44.55425244513614	-9.989646203390926	-10.01068869247442	55.26517826298623	0.9645593223907104	0	0	0	-13.71250388274301	-0.6246501064943069	1.617335685909819	68.73169641737773	-9.337454343427023	26.57294226582131	59.03047291541088	88.56366271983781	0	0	78.21292671169425	-4.978328995356339	23.73904644266869	61.16596256737659	97.63050790238871	0	0
